<svg xmlns="http://www.w3.org/2000/svg" viewBox="0 0 783.76 161.5"><defs><style>.cls-1{fill:#00d9ff;}.cls-2{fill:#fff;}</style></defs><title>admify logo</title><g id="Layer_2" data-name="Layer 2"><g id="Layer_1-2" data-name="Layer 1"><path class="cls-1" d="M0,79.34a79.36,79.36,0,0,0,129.1,61.83L112.94,101a40,40,0,1,1,3.55-36.32l.76,1.92,35.91,89.33H195.6L154.21,53a78,78,0,0,0-6.78-14.45A79.36,79.36,0,0,0,0,79.34Z"/><path class="cls-1" d="M148.57,12.64a95.75,95.75,0,0,1,24.64,45.74L195.6,2.69H152.5Z"/><path class="cls-2" d="M229.3,126.92,269,21.68h31l39.67,105.24h-31l-6.29-18.19H266.58l-6.29,18.19ZM273.76,85.3H295.1L284.47,54.84Z"/><path class="cls-2" d="M343.07,86.35c0-25.15,17.89-43,40.79-43,7.93,0,14.52,2.54,19.39,7V13h26.95V126.92H405.57v-5.46h-1c-4.87,5-11.83,7.86-20.73,7.86C361,129.31,343.07,111.5,343.07,86.35Zm61.15,0c0-11.68-7.48-18.26-17.14-18.26S370,74.67,370,86.35s7.41,18.26,17.07,18.26S404.22,98,404.22,86.35Z"/><path class="cls-2" d="M449.64,126.92V45.7h24.63v5.46h1c4.27-4.49,12.2-7.86,20.28-7.86,9.13,0,16.17,3.07,21.33,8.53a37.66,37.66,0,0,1,24.78-8.53c19.24,0,33.83,14,33.83,35.55v48.05H548.52V78c0-5.54-3.74-10.48-10-10.48-7.19,0-12.5,6.74-12.5,14.07v45.36H499.12V78c0-5.54-3.74-10.48-10.1-10.48-7.19,0-12.43,6.74-12.43,14.07v45.36Z"/><path class="cls-2" d="M591.47,24.89c0-9.13,6.66-14.89,15.94-14.89s16,5.76,16,14.89-6.66,14.82-16,14.82S591.47,34,591.47,24.89Zm2.55,102V45.7h26.87v81.21Z"/><path class="cls-2" d="M647.08,126.92V68.23H635.71V45.7h11.38V39.86c0-17.51,10-27.84,30-27.84a135.13,135.13,0,0,1,14.82,1V35.52H680.39A6,6,0,0,0,674,41.74v4h17.89V68.23H674v58.68Z"/><path class="cls-2" d="M701.94,138.37c12.57-.07,21.18-3.82,24.1-12.35l1.2-3.29-31.81-77h30.39l14.52,43.11L754,45.7h29.79l-32.49,88.55c-7,18.79-20.81,27.25-49.33,27.25Z"/></g></g></svg>